<?xml version="1.0" encoding="utf-8"?>
<!-- Generator: Adobe Illustrator 22.0.1, SVG Export Plug-In . SVG Version: 6.00 Build 0)  -->
<svg version="1.1" id="Layer_1" xmlns="http://www.w3.org/2000/svg" xmlns:xlink="http://www.w3.org/1999/xlink" x="0px" y="0px"
	 viewBox="0 0 300.2 583.2" style="enable-background:new 0 0 300.2 583.2;" xml:space="preserve">
<style type="text/css">
	.st0{enable-background:new    ;}
</style>
<title>8</title>
<g class="st0">
	<path d="M272.7,172.8c0,42.1-16.2,74-59.4,83.7v1.1c42.7,9.2,67.5,42.7,67.5,86.9c0,70.2-52.9,113.4-130.7,113.4
		c-77.8,0-130.7-43.2-130.7-113.4c0-44.3,24.8-77.8,67.5-86.9v-1.1c-43.2-9.7-59.4-41.6-59.4-83.7c0-61,65.9-96.1,122.6-96.1
		C206.8,76.7,272.7,111.8,272.7,172.8z M149,281.9c-32.4,0-60.5,18.4-60.5,58.3c0,43.2,23.8,63.7,61.6,63.7
		c36.7,0,61.6-20.5,61.6-63.7c0-40-29.2-58.3-61.6-58.3H149z M149,130.7c-30.8,0-55.6,20-55.6,52.4c0,33.5,25.9,51.3,56.7,51.3
		c29.7,0,56.7-17.8,56.7-51.3c0-32.4-25.9-52.4-56.7-52.4H149z"/>
</g>
</svg>
